<svg width="17" height="17" viewBox="0 0 17 17" fill="none" xmlns="http://www.w3.org/2000/svg">
<path d="M8.66651 0.666687C7.08426 0.666687 5.53754 1.13588 4.22194 2.01493C2.90635 2.89398 1.88097 4.14341 1.27547 5.60522C0.66997 7.06703 0.511544 8.67556 0.820225 10.2274C1.12891 11.7793 1.89083 13.2047 3.00965 14.3235C4.12847 15.4424 5.55394 16.2043 7.10578 16.513C8.65763 16.8216 10.2662 16.6632 11.728 16.0577C13.1898 15.4522 14.4392 14.4268 15.3183 13.1112C16.1973 11.7957 16.6665 10.2489 16.6665 8.66669C16.6665 7.61611 16.4596 6.57582 16.0575 5.60522C15.6555 4.63461 15.0662 3.7527 14.3234 3.00983C13.5805 2.26696 12.6986 1.67769 11.728 1.27565C10.7574 0.873613 9.71708 0.666687 8.66651 0.666687ZM11.6321 10.5011C11.7085 10.5749 11.7695 10.6632 11.8114 10.7608C11.8533 10.8584 11.8754 10.9633 11.8763 11.0696C11.8772 11.1758 11.857 11.2811 11.8168 11.3794C11.7765 11.4778 11.7171 11.5671 11.642 11.6422C11.5669 11.7173 11.4776 11.7767 11.3793 11.8169C11.281 11.8572 11.1756 11.8774 11.0694 11.8765C10.9632 11.8756 10.8582 11.8535 10.7606 11.8116C10.663 11.7696 10.5747 11.7087 10.5009 11.6323L8.66651 9.79789L6.83211 11.6323C6.68122 11.778 6.47914 11.8586 6.26939 11.8568C6.05963 11.855 5.85898 11.7709 5.71065 11.6225C5.56233 11.4742 5.47819 11.2736 5.47637 11.0638C5.47454 10.854 5.55518 10.652 5.70091 10.5011L7.53531 8.66669L5.70091 6.83229C5.55518 6.6814 5.47454 6.47932 5.47637 6.26957C5.47819 6.05981 5.56233 5.85916 5.71065 5.71083C5.85898 5.56251 6.05963 5.47837 6.26939 5.47655C6.47914 5.47472 6.68122 5.55536 6.83211 5.70109L8.66651 7.53549L10.5009 5.70109C10.6518 5.55536 10.8539 5.47472 11.0636 5.47655C11.2734 5.47837 11.474 5.56251 11.6224 5.71083C11.7707 5.85916 11.8548 6.05981 11.8566 6.26957C11.8585 6.47932 11.7778 6.6814 11.6321 6.83229L9.79771 8.66669L11.6321 10.5011Z" fill="#909090"/>
</svg>
