<svg id="Tech_news" data-name="Tech news" xmlns="http://www.w3.org/2000/svg" xmlns:xlink="http://www.w3.org/1999/xlink" width="49" height="49" viewBox="0 0 49 49">
  <defs>
    <linearGradient id="linear-gradient" x1="0.5" x2="0.5" y2="1" gradientUnits="objectBoundingBox">
      <stop offset="0" stop-color="#ffeec1"/>
      <stop offset="1" stop-color="#ccf7f4"/>
    </linearGradient>
  </defs>
  <rect id="Rectangle_4896" data-name="Rectangle 4896" width="49" height="49" rx="10" fill="url(#linear-gradient)"/>
  <path id="Icon_awesome-newspaper" data-name="Icon awesome-newspaper" d="M22.264,4.5H3.549a.968.968,0,0,0-.968.968v.323H.968A.968.968,0,0,0,0,6.759V17.73a2.259,2.259,0,0,0,2.259,2.259H21.3a1.936,1.936,0,0,0,1.936-1.936V5.468A.968.968,0,0,0,22.264,4.5ZM2.259,18.052a.323.323,0,0,1-.323-.323v-10h.645v10A.323.323,0,0,1,2.259,18.052Zm9.519-.645H5.647a.484.484,0,0,1-.484-.484V16.6a.484.484,0,0,1,.484-.484h6.131a.484.484,0,0,1,.484.484v.323A.484.484,0,0,1,11.778,17.407Zm8.389,0H14.036a.484.484,0,0,1-.484-.484V16.6a.484.484,0,0,1,.484-.484h6.131a.484.484,0,0,1,.484.484v.323A.484.484,0,0,1,20.167,17.407Zm-8.389-3.872H5.647a.484.484,0,0,1-.484-.484v-.323a.484.484,0,0,1,.484-.484h6.131a.484.484,0,0,1,.484.484v.323A.484.484,0,0,1,11.778,13.535Zm8.389,0H14.036a.484.484,0,0,1-.484-.484v-.323a.484.484,0,0,1,.484-.484h6.131a.484.484,0,0,1,.484.484v.323A.484.484,0,0,1,20.167,13.535Zm0-3.872H5.647a.484.484,0,0,1-.484-.484V7.565a.484.484,0,0,1,.484-.484h14.52a.484.484,0,0,1,.484.484V9.179A.484.484,0,0,1,20.167,9.663Z" transform="translate(12.884 12.256)" fill="#1d94d2"/>
</svg>
